# This file uses centimeters as units for non-parametric coordinates.

mtllib r.mtl
g default
v 171.328723 -8.373310 -300.010102
v 151.225789 -8.373310 -300.010101
v 175.519569 -5.706646 -287.607848
v 157.159984 -5.706646 -280.497368
v 187.367493 -3.039979 -277.350106
v 173.936562 -3.039974 -264.358509
v 204.823871 -0.373310 -271.010416
v 198.654649 -0.373308 -254.384128
v 224.870312 2.293356 -269.685046
v 227.040274 2.293356 -252.298925
v 244.040639 4.960025 -273.603155
v 254.185338 4.960025 -258.463438
v 259.020137 7.626689 -282.087286
v 275.396170 7.626692 -271.811758
v 267.218664 10.293358 -293.670456
v 287.005219 10.293358 -290.035755
v 267.218664 12.960022 -306.349807
v 287.005219 12.960022 -309.984482
v 259.020137 15.626686 -317.932919
v 275.396170 15.626686 -328.208511
v 244.040639 18.293353 -326.417048
v 254.185312 18.293355 -341.556782
v 224.870312 20.960019 -330.335173
v 227.040274 20.960021 -347.721278
v 204.823850 23.626688 -329.009803
v 198.654649 23.626688 -345.636091
v 187.367485 26.293352 -322.670185
v 173.936547 26.293357 -335.661711
v 175.519557 28.960021 -312.412357
v 157.159984 28.960024 -319.522867
v 171.328723 31.626690 -300.010102
v 151.225789 31.626690 -300.010101
v 175.519569 34.293357 -287.607848
v 157.160007 34.293357 -280.497368
v 187.367493 36.960021 -277.350106
v 173.936562 36.960026 -264.358509
v 204.823871 39.626690 -271.010388
v 198.654649 39.626690 -254.384128
v 224.870332 42.293359 -269.685046
v 227.040298 42.293359 -252.298961
v 244.040659 44.960023 -273.603155
v 254.185338 44.960023 -258.463438
v 259.020137 47.626692 -282.087286
v 275.396170 47.626692 -271.811758
v 267.218664 50.293356 -293.670427
v 287.005219 50.293356 -290.035755
v 267.218664 52.960020 -306.349778
v 287.005265 52.960020 -309.984415
v 259.020180 55.626684 -317.932863
v 275.396239 55.626684 -328.208445
v 244.040722 58.293348 -326.416992
v 254.185433 58.293358 -341.556749
v 224.870435 60.960022 -330.335145
v 227.040443 60.960022 -347.721278
v 204.823994 63.626686 -329.009861
v 198.654843 63.626686 -345.636160
v 185.921190 66.260444 -321.908398
v 176.602175 66.322776 -336.840543
vt 0.500000 0.312500
vt 0.541667 0.312500
vt 0.500000 0.325031
vt 0.500000 0.337563
vt 0.541667 0.325031
vt 0.500000 0.350094
vt 0.541667 0.337563
vt 0.500000 0.362625
vt 0.541667 0.350094
vt 0.500000 0.375157
vt 0.541667 0.362625
vt 0.500000 0.387688
vt 0.541667 0.375157
vt 0.500000 0.400219
vt 0.541667 0.387688
vt 0.500000 0.412751
vt 0.541667 0.400219
vt 0.500000 0.425282
vt 0.541667 0.412751
vt 0.500000 0.437813
vt 0.541667 0.425282
vt 0.500000 0.450345
vt 0.541667 0.437813
vt 0.500000 0.462876
vt 0.541667 0.450345
vt 0.500000 0.475407
vt 0.541667 0.462876
vt 0.500000 0.487939
vt 0.541667 0.475407
vt 0.500000 0.500470
vt 0.541667 0.487939
vt 0.500000 0.513001
vt 0.541667 0.500470
vt 0.500000 0.525533
vt 0.541667 0.513001
vt 0.500000 0.538064
vt 0.541667 0.525533
vt 0.500000 0.550595
vt 0.541667 0.538064
vt 0.500000 0.563127
vt 0.541667 0.550595
vt 0.500000 0.575658
vt 0.541667 0.563127
vt 0.500000 0.588189
vt 0.541667 0.575658
vt 0.500000 0.600721
vt 0.541667 0.588189
vt 0.500000 0.613252
vt 0.541667 0.600721
vt 0.500000 0.625784
vt 0.541667 0.613252
vt 0.500000 0.638315
vt 0.541667 0.625784
vt 0.500000 0.650846
vt 0.541667 0.638315
vt 0.500000 0.663378
vt 0.541667 0.650846
vt 0.541667 0.663378
vn -0.028813 0.987359 -0.155857
vn -0.028813 0.987359 -0.155857
vn -0.054360 0.989301 -0.135385
vn -0.052258 0.989181 -0.137077
vn -0.089132 0.992028 -0.089084
vn -0.087752 0.991885 -0.091996
vn -0.104607 0.993804 -0.037553
vn -0.104339 0.993768 -0.039220
vn -0.107201 0.994152 0.013054
vn -0.107176 0.994148 0.013514
vn -0.098554 0.993068 0.064058
vn -0.097857 0.992984 0.066391
vn -0.074168 0.990670 0.114333
vn -0.072283 0.990516 0.116847
vn -0.028659 0.988184 0.150570
vn -0.027316 0.988144 0.151077
vn 0.028659 0.988184 0.150570
vn 0.027316 0.988144 0.151077
vn 0.074168 0.990670 0.114333
vn 0.072283 0.990516 0.116847
vn 0.098554 0.993068 0.064058
vn 0.097857 0.992984 0.066391
vn 0.107201 0.994152 0.013054
vn 0.107176 0.994148 0.013514
vn 0.104607 0.993804 -0.037553
vn 0.104339 0.993768 -0.039220
vn 0.089132 0.992028 -0.089084
vn 0.087752 0.991885 -0.091996
vn 0.054360 0.989301 -0.135385
vn 0.052258 0.989181 -0.137077
vn 0.000000 0.987769 -0.155922
vn 0.000000 0.987769 -0.155922
vn -0.054360 0.989301 -0.135385
vn -0.052258 0.989181 -0.137077
vn -0.089132 0.992028 -0.089084
vn -0.087752 0.991885 -0.091996
vn -0.104607 0.993804 -0.037553
vn -0.104339 0.993768 -0.039220
vn -0.107201 0.994152 0.013054
vn -0.107176 0.994148 0.013514
vn -0.098554 0.993068 0.064058
vn -0.097857 0.992984 0.066391
vn -0.074168 0.990670 0.114334
vn -0.072283 0.990516 0.116847
vn -0.028659 0.988184 0.150570
vn -0.027316 0.988144 0.151077
vn 0.028659 0.988184 0.150571
vn 0.027316 0.988144 0.151078
vn 0.074168 0.990670 0.114334
vn 0.072283 0.990516 0.116847
vn 0.098554 0.993068 0.064058
vn 0.097857 0.992984 0.066391
vn 0.107201 0.994152 0.013054
vn 0.107176 0.994148 0.013515
vn 0.108854 0.993585 -0.030651
vn 0.108873 0.993544 -0.031900
vn 0.109153 0.992684 -0.051609
vn 0.109153 0.992684 -0.051609
s 1
g pHelix3
usemtl initialShadingGroup
f 1/1/1 2/2/2 4/5/3 3/3/4
f 3/3/4 4/5/3 6/7/5 5/4/6
f 5/4/6 6/7/5 8/9/7 7/6/8
f 7/6/8 8/9/7 10/11/9 9/8/10
f 9/8/10 10/11/9 12/13/11 11/10/12
f 11/10/12 12/13/11 14/15/13 13/12/14
f 13/12/14 14/15/13 16/17/15 15/14/16
f 15/14/16 16/17/15 18/19/17 17/16/18
f 17/16/18 18/19/17 20/21/19 19/18/20
f 19/18/20 20/21/19 22/23/21 21/20/22
f 21/20/22 22/23/21 24/25/23 23/22/24
f 23/22/24 24/25/23 26/27/25 25/24/26
f 25/24/26 26/27/25 28/29/27 27/26/28
f 27/26/28 28/29/27 30/31/29 29/28/30
f 29/28/30 30/31/29 32/33/31 31/30/32
f 31/30/32 32/33/31 34/35/33 33/32/34
f 33/32/34 34/35/33 36/37/35 35/34/36
f 35/34/36 36/37/35 38/39/37 37/36/38
f 37/36/38 38/39/37 40/41/39 39/38/40
f 39/38/40 40/41/39 42/43/41 41/40/42
f 41/40/42 42/43/41 44/45/43 43/42/44
f 43/42/44 44/45/43 46/47/45 45/44/46
f 45/44/46 46/47/45 48/49/47 47/46/48
f 47/46/48 48/49/47 50/51/49 49/48/50
f 49/48/50 50/51/49 52/53/51 51/50/52
f 51/50/52 52/53/51 54/55/53 53/52/54
f 53/52/54 54/55/53 56/57/55 55/54/56
f 55/54/56 56/57/55 58/58/57 57/56/58
